<svg xmlns="http://www.w3.org/2000/svg" viewBox="0 0 122.09 88.022" style="enable-background:new 0 0 122.09 88.022" xml:space="preserve"><path d="M112.647 1.707A16.677 16.677 0 0 0 99.876.906l-.052.018-16.155 5.573C72.526-.215 59.163-1.661 46.887 2.53l-.134.046c-16.909 5.833-28.759 21.788-29.489 39.7l-.072 1.759 11.231-3.874.104-.727c1.752-12.3 10.108-22.447 21.806-26.483l.1-.034c11.053-3.774 22.923-1.29 31.489 5.743l21.483-7.361.018-.006a5.822 5.822 0 0 1 7.376 3.606 5.822 5.822 0 0 1-3.597 7.392l.006.018-95.889 33.043a16.673 16.673 0 0 0-9.612 8.524 16.675 16.675 0 0 0-.783 12.823 16.675 16.675 0 0 0 8.523 9.612c4.036 1.965 8.577 2.252 12.823.783l16.155-5.573c11.144 6.712 24.506 8.159 36.781 3.967l.135-.046c16.909-5.833 28.76-21.788 29.49-39.7l.072-1.759-11.231 3.875-.104.727C91.816 60.884 83.46 71.032 71.761 75.068a3.928 3.928 0 0 1-.1.034c-11.049 3.772-22.914 1.292-31.479-5.735L18.691 76.72l-.018.006a5.822 5.822 0 0 1-7.376-3.605 5.822 5.822 0 0 1 3.601-7.394l95.877-33.06c8.751-3.019 13.414-12.595 10.395-21.347a16.674 16.674 0 0 0-8.523-9.613z"/></svg>